<svg xmlns="http://www.w3.org/2000/svg" viewBox="0 0 1176 24" width="1176" height="24"><g fill="none"><path d="M12 2C9.349 2 6.804 3.054 4.929 4.929 3.054 6.804 2 9.349 2 12s1.054 5.196 2.929 7.071C6.804 20.946 9.349 22 12 22s5.196-1.054 7.071-2.929C20.946 17.196 22 14.651 22 12s-1.054-5.196-2.929-7.071C17.196 3.054 14.651 2 12 2z" stroke="#000000"/><path d="M20 6L9 17l-5-5" stroke="#ffffff" stroke-dasharray="0,22.627416997969522" stroke-dashoffset="22.627417"/></g><path d="M36 2c-2.651 0-5.196 1.054-7.071 2.929C27.054 6.804 26 9.349 26 12s1.054 5.196 2.929 7.071C30.804 20.946 33.349 22 36 22s5.196-1.054 7.071-2.929C44.946 17.196 46 14.651 46 12s-1.054-5.196-2.929-7.071C41.196 3.054 38.651 2 36 2z" fill="#000000" fill-opacity=".000942" stroke="#000000"/><path d="M44 6L33 17l-5-5" fill="none" stroke="#ffffff" stroke-dasharray="0.021324898384492173,22.60609209958503" stroke-dashoffset=".021325"/><path d="M60 2c-2.651 0-5.196 1.054-7.071 2.929C51.054 6.804 50 9.349 50 12s1.054 5.196 2.929 7.071C54.804 20.946 57.349 22 60 22s5.196-1.054 7.071-2.929C68.946 17.196 70 14.651 70 12s-1.054-5.196-2.929-7.071C65.196 3.054 62.651 2 60 2z" fill="#000000" fill-opacity=".003936" stroke="#000000"/><path d="M68 6L57 17l-5-5" fill="none" stroke="#ffffff" stroke-dasharray="0.08906780313650729,22.538349194833014" stroke-dashoffset=".089068"/><path d="M84 2c-2.651 0-5.196 1.054-7.071 2.929C75.054 6.804 74 9.349 74 12s1.054 5.196 2.929 7.071C78.804 20.946 81.349 22 84 22s5.196-1.054 7.071-2.929C92.946 17.196 94 14.651 94 12s-1.054-5.196-2.929-7.071C89.196 3.054 86.651 2 84 2z" fill="#000000" fill-opacity=".009266" stroke="#000000"/><path d="M92 6L81 17l-5-5" fill="none" stroke="#ffffff" stroke-dasharray="0.20966281530401457,22.417754182665508" stroke-dashoffset=".209663"/><path d="M108 2c-2.651 0-5.196 1.054-7.071 2.929C99.054 6.804 98 9.349 98 12s1.054 5.196 2.929 7.071C102.804 20.946 105.349 22 108 22s5.196-1.054 7.071-2.929C116.946 17.196 118 14.651 118 12s-1.054-5.196-2.929-7.071C113.196 3.054 110.651 2 108 2z" fill="#000000" fill-opacity=".017269" stroke="#000000"/><path d="M116 6l-11 11-5-5" fill="none" stroke="#ffffff" stroke-dasharray="0.39075075366497136,22.23666624430455" stroke-dashoffset=".390751"/><path d="M132 2c-2.651 0-5.196 1.054-7.071 2.929C123.054 6.804 122 9.349 122 12s1.054 5.196 2.929 7.071C126.804 20.946 129.349 22 132 22s5.196-1.054 7.071-2.929C140.946 17.196 142 14.651 142 12s-1.054-5.196-2.929-7.071C137.196 3.054 134.651 2 132 2z" fill="#000000" fill-opacity=".028346" stroke="#000000"/><path d="M140 6l-11 11-5-5" fill="none" stroke="#ffffff" stroke-dasharray="0.6413945108775315,21.98602248709199" stroke-dashoffset=".641395"/><path d="M156 2c-2.651 0-5.196 1.054-7.071 2.929C147.054 6.804 146 9.349 146 12s1.054 5.196 2.929 7.071C150.804 20.946 153.349 22 156 22s5.196-1.054 7.071-2.929C164.946 17.196 166 14.651 166 12s-1.054-5.196-2.929-7.071C161.196 3.054 158.651 2 156 2z" fill="#000000" fill-opacity=".042969" stroke="#000000"/><path d="M164 6l-11 11-5-5" fill="none" stroke="#ffffff" stroke-dasharray="0.9722718241315029,21.65514517383802" stroke-dashoffset=".972272"/><path d="M180 2c-2.651 0-5.196 1.054-7.071 2.929C171.054 6.804 170 9.349 170 12s1.054 5.196 2.929 7.071C174.804 20.946 177.349 22 180 22s5.196-1.054 7.071-2.929C188.946 17.196 190 14.651 190 12s-1.054-5.196-2.929-7.071C185.196 3.054 182.651 2 180 2z" fill="#000000" fill-opacity=".061684" stroke="#000000"/><path d="M188 6l-11 11-5-5" fill="none" stroke="#ffffff" stroke-dasharray="1.395758355945385,21.231658642024136" stroke-dashoffset="1.395758"/><path d="M204 2c-2.651 0-5.196 1.054-7.071 2.929C195.054 6.804 194 9.349 194 12s1.054 5.196 2.929 7.071C198.804 20.946 201.349 22 204 22s5.196-1.054 7.071-2.929C212.946 17.196 214 14.651 214 12s-1.054-5.196-2.929-7.071C209.196 3.054 206.651 2 204 2z" fill="#000000" fill-opacity=".085105" stroke="#000000"/><path d="M212 6l-11 11-5-5" fill="none" stroke="#ffffff" stroke-dasharray="1.9257172211018367,20.701699776867684" stroke-dashoffset="1.925717"/><path d="M228 2c-2.651 0-5.196 1.054-7.071 2.929C219.054 6.804 218 9.349 218 12s1.054 5.196 2.929 7.071C222.804 20.946 225.349 22 228 22s5.196-1.054 7.071-2.929C236.946 17.196 238 14.651 238 12s-1.054-5.196-2.929-7.071C233.196 3.054 230.651 2 228 2z" fill="#000000" fill-opacity=".113873" stroke="#000000"/><path d="M236 6l-11 11-5-5" fill="none" stroke="#ffffff" stroke-dasharray="2.5766463630387513,20.05077063493077" stroke-dashoffset="2.576646"/><path d="M252 2c-2.651 0-5.196 1.054-7.071 2.929C243.054 6.804 242 9.349 242 12s1.054 5.196 2.929 7.071C246.804 20.946 249.349 22 252 22s5.196-1.054 7.071-2.929C260.946 17.196 262 14.651 262 12s-1.054-5.196-2.929-7.071C257.196 3.054 254.651 2 252 2z" fill="#000000" fill-opacity=".148564" stroke="#000000"/><path d="M260 6l-11 11-5-5" fill="none" stroke="#ffffff" stroke-dasharray="3.3616189370077,19.26579806096182" stroke-dashoffset="3.361619"/><path d="M276 2c-2.651 0-5.196 1.054-7.071 2.929C267.054 6.804 266 9.349 266 12s1.054 5.196 2.929 7.071C270.804 20.946 273.349 22 276 22s5.196-1.054 7.071-2.929C284.946 17.196 286 14.651 286 12s-1.054-5.196-2.929-7.071C281.196 3.054 278.651 2 276 2z" fill="#000000" fill-opacity=".189521" stroke="#000000"/><path d="M284 6l-11 11-5-5" fill="none" stroke="#ffffff" stroke-dasharray="4.288359579493889,18.339057418475633" stroke-dashoffset="4.28836"/><path d="M300 2c-2.651 0-5.196 1.054-7.071 2.929C291.054 6.804 290 9.349 290 12s1.054 5.196 2.929 7.071C294.804 20.946 297.349 22 300 22s5.196-1.054 7.071-2.929C308.946 17.196 310 14.651 310 12s-1.054-5.196-2.929-7.071C305.196 3.054 302.651 2 300 2z" fill="#000000" fill-opacity=".236587" stroke="#000000"/><path d="M308 6l-11 11-5-5" fill="none" stroke="#ffffff" stroke-dasharray="5.353360861753419,17.274056136216103" stroke-dashoffset="5.353361"/><path d="M324 2c-2.651 0-5.196 1.054-7.071 2.929C315.054 6.804 314 9.349 314 12s1.054 5.196 2.929 7.071C318.804 20.946 321.349 22 324 22s5.196-1.054 7.071-2.929C332.946 17.196 334 14.651 334 12s-1.054-5.196-2.929-7.071C329.196 3.054 326.651 2 324 2z" fill="#000000" fill-opacity=".288848" stroke="#000000"/><path d="M332 6l-11 11-5-5" fill="none" stroke="#ffffff" stroke-dasharray="6.5358827373851485,16.091534260584375" stroke-dashoffset="6.535883"/><path d="M348 2c-2.651 0-5.196 1.054-7.071 2.929C339.054 6.804 338 9.349 338 12s1.054 5.196 2.929 7.071C342.804 20.946 345.349 22 348 22s5.196-1.054 7.071-2.929C356.946 17.196 358 14.651 358 12s-1.054-5.196-2.929-7.071C353.196 3.054 350.651 2 348 2z" fill="#000000" fill-opacity=".344554" stroke="#000000"/><path d="M356 6l-11 11-5-5" fill="none" stroke="#ffffff" stroke-dasharray="7.7963594594283,14.831057538541224" stroke-dashoffset="7.796359"/><path d="M372 2c-2.651 0-5.196 1.054-7.071 2.929C363.054 6.804 362 9.349 362 12s1.054 5.196 2.929 7.071C366.804 20.946 369.349 22 372 22s5.196-1.054 7.071-2.929C380.946 17.196 382 14.651 382 12s-1.054-5.196-2.929-7.071C377.196 3.054 374.651 2 372 2z" fill="#000000" fill-opacity=".401429" stroke="#000000"/><path d="M380 6l-11 11-5-5" fill="none" stroke="#ffffff" stroke-dasharray="9.083304495171207,13.544112502798315" stroke-dashoffset="9.083304"/><path d="M396 2c-2.651 0-5.196 1.054-7.071 2.929C387.054 6.804 386 9.349 386 12s1.054 5.196 2.929 7.071C390.804 20.946 393.349 22 396 22s5.196-1.054 7.071-2.929C404.946 17.196 406 14.651 406 12s-1.054-5.196-2.929-7.071C401.196 3.054 398.651 2 396 2z" fill="#000000" fill-opacity=".457252" stroke="#000000"/><path d="M404 6l-11 11-5-5" fill="none" stroke="#ffffff" stroke-dasharray="10.346425789883414,12.280991208086109" stroke-dashoffset="10.346426"/><path d="M420 2c-2.651 0-5.196 1.054-7.071 2.929C411.054 6.804 410 9.349 410 12s1.054 5.196 2.929 7.071C414.804 20.946 417.349 22 420 22s5.196-1.054 7.071-2.929C428.946 17.196 430 14.651 430 12s-1.054-5.196-2.929-7.071C425.196 3.054 422.651 2 420 2z" fill="#000000" fill-opacity=".510343" stroke="#000000"/><path d="M428 6l-11 11-5-5" fill="none" stroke="#ffffff" stroke-dasharray="11.547752165790492,11.07966483217903" stroke-dashoffset="11.547752"/><path d="M444 2c-2.651 0-5.196 1.054-7.071 2.929C435.054 6.804 434 9.349 434 12s1.054 5.196 2.929 7.071C438.804 20.946 441.349 22 444 22s5.196-1.054 7.071-2.929C452.946 17.196 454 14.651 454 12s-1.054-5.196-2.929-7.071C449.196 3.054 446.651 2 444 2z" fill="#000000" fill-opacity=".55973" stroke="#000000"/><path d="M452 6l-11 11-5-5" fill="none" stroke="#ffffff" stroke-dasharray="12.66524734240184,9.962169655567683" stroke-dashoffset="12.665247"/><path d="M468 2c-2.651 0-5.196 1.054-7.071 2.929C459.054 6.804 458 9.349 458 12s1.054 5.196 2.929 7.071C462.804 20.946 465.349 22 468 22s5.196-1.054 7.071-2.929C476.946 17.196 478 14.651 478 12s-1.054-5.196-2.929-7.071C473.196 3.054 470.651 2 468 2z" fill="#000000" fill-opacity=".60503" stroke="#000000"/><path d="M476 6l-11 11-5-5" fill="none" stroke="#ffffff" stroke-dasharray="13.690256179530552,8.93716081843897" stroke-dashoffset="13.690256"/><path d="M492 2c-2.651 0-5.196 1.054-7.071 2.929C483.054 6.804 482 9.349 482 12s1.054 5.196 2.929 7.071C486.804 20.946 489.349 22 492 22s5.196-1.054 7.071-2.929C500.946 17.196 502 14.651 502 12s-1.054-5.196-2.929-7.071C497.196 3.054 494.651 2 492 2z" fill="#000000" fill-opacity=".646246" stroke="#000000"/><path d="M500 6l-11 11-5-5" fill="none" stroke="#ffffff" stroke-dasharray="14.62288041507916,8.004536582890362" stroke-dashoffset="14.62288"/><path d="M516 2c-2.651 0-5.196 1.054-7.071 2.929C507.054 6.804 506 9.349 506 12s1.054 5.196 2.929 7.071C510.804 20.946 513.349 22 516 22s5.196-1.054 7.071-2.929C524.946 17.196 526 14.651 526 12s-1.054-5.196-2.929-7.071C521.196 3.054 518.651 2 516 2z" fill="#000000" fill-opacity=".683594" stroke="#000000"/><path d="M524 6l-11 11-5-5" fill="none" stroke="#ffffff" stroke-dasharray="15.467960838455728,7.159456159513794" stroke-dashoffset="15.467961"/><path d="M540 2c-2.651 0-5.196 1.054-7.071 2.929C531.054 6.804 530 9.349 530 12s1.054 5.196 2.929 7.071C534.804 20.946 537.349 22 540 22s5.196-1.054 7.071-2.929C548.946 17.196 550 14.651 550 12s-1.054-5.196-2.929-7.071C545.196 3.054 542.651 2 540 2z" fill="#000000" fill-opacity=".717378" stroke="#000000"/><path d="M548 6l-11 11-5-5" fill="none" stroke="#ffffff" stroke-dasharray="16.232405439259605,6.395011558709919" stroke-dashoffset="16.232405"/><path d="M564 2c-2.651 0-5.196 1.054-7.071 2.929C555.054 6.804 554 9.349 554 12s1.054 5.196 2.929 7.071C558.804 20.946 561.349 22 564 22s5.196-1.054 7.071-2.929C572.946 17.196 574 14.651 574 12s-1.054-5.196-2.929-7.071C569.196 3.054 566.651 2 564 2z" fill="#000000" fill-opacity=".747927" stroke="#000000"/><path d="M572 6l-11 11-5-5" fill="none" stroke="#ffffff" stroke-dasharray="16.923663349569004,5.703753648400517" stroke-dashoffset="16.923663"/><path d="M588 2c-2.651 0-5.196 1.054-7.071 2.929C579.054 6.804 578 9.349 578 12s1.054 5.196 2.929 7.071C582.804 20.946 585.349 22 588 22s5.196-1.054 7.071-2.929C596.946 17.196 598 14.651 598 12s-1.054-5.196-2.929-7.071C593.196 3.054 590.651 2 588 2z" fill="#000000" fill-opacity=".775561" stroke="#000000"/><path d="M596 6l-11 11-5-5" fill="none" stroke="#ffffff" stroke-dasharray="17.548949194118183,5.07846780385134" stroke-dashoffset="17.548949"/><g><path d="M612 2c-2.651 0-5.196 1.054-7.071 2.929C603.054 6.804 602 9.349 602 12s1.054 5.196 2.929 7.071C606.804 20.946 609.349 22 612 22s5.196-1.054 7.071-2.929C620.946 17.196 622 14.651 622 12s-1.054-5.196-2.929-7.071C617.196 3.054 614.651 2 612 2z" fill="#000000" fill-opacity=".800573" stroke="#000000"/><path d="M620 6l-11 11-5-5" fill="none" stroke="#ffffff" stroke-dasharray="18.114899725823474,4.51251727214605" stroke-dashoffset="18.1149"/></g><g><path d="M636 2c-2.651 0-5.196 1.054-7.071 2.929C627.054 6.804 626 9.349 626 12s1.054 5.196 2.929 7.071C630.804 20.946 633.349 22 636 22s5.196-1.054 7.071-2.929C644.946 17.196 646 14.651 646 12s-1.054-5.196-2.929-7.071C641.196 3.054 638.651 2 636 2z" fill="#000000" fill-opacity=".823225" stroke="#000000"/><path d="M644 6l-11 11-5-5" fill="none" stroke="#ffffff" stroke-dasharray="18.627460018904443,3.99995697906508" stroke-dashoffset="18.62746"/></g><g><path d="M660 2c-2.651 0-5.196 1.054-7.071 2.929C651.054 6.804 650 9.349 650 12s1.054 5.196 2.929 7.071C654.804 20.946 657.349 22 660 22s5.196-1.054 7.071-2.929C668.946 17.196 670 14.651 670 12s-1.054-5.196-2.929-7.071C665.196 3.054 662.651 2 660 2z" fill="#000000" fill-opacity=".84375" stroke="#000000"/><path d="M668 6l-11 11-5-5" fill="none" stroke="#ffffff" stroke-dasharray="19.09188309203678,3.5355339059327404" stroke-dashoffset="19.091883"/></g><g><path d="M684 2c-2.651 0-5.196 1.054-7.071 2.929C675.054 6.804 674 9.349 674 12s1.054 5.196 2.929 7.071C678.804 20.946 681.349 22 684 22s5.196-1.054 7.071-2.929C692.946 17.196 694 14.651 694 12s-1.054-5.196-2.929-7.071C689.196 3.054 686.651 2 684 2z" fill="#000000" fill-opacity=".862351" stroke="#000000"/><path d="M692 6l-11 11-5-5" fill="none" stroke="#ffffff" stroke-dasharray="19.512780374128777,3.1146366238407435" stroke-dashoffset="19.51278"/></g><g><path d="M708 2c-2.651 0-5.196 1.054-7.071 2.929C699.054 6.804 698 9.349 698 12s1.054 5.196 2.929 7.071C702.804 20.946 705.349 22 708 22s5.196-1.054 7.071-2.929C716.946 17.196 718 14.651 718 12s-1.054-5.196-2.929-7.071C713.196 3.054 710.651 2 708 2z" fill="#000000" fill-opacity=".879207" stroke="#000000"/><path d="M716 6l-11 11-5-5" fill="none" stroke="#ffffff" stroke-dasharray="19.89419077660461,2.733226221364912" stroke-dashoffset="19.894191"/></g><g><path d="M732 2c-2.651 0-5.196 1.054-7.071 2.929C723.054 6.804 722 9.349 722 12s1.054 5.196 2.929 7.071C726.804 20.946 729.349 22 732 22s5.196-1.054 7.071-2.929C740.946 17.196 742 14.651 742 12s-1.054-5.196-2.929-7.071C737.196 3.054 734.651 2 732 2z" fill="#000000" fill-opacity=".894475" stroke="#000000"/><path d="M740 6l-11 11-5-5" fill="none" stroke="#ffffff" stroke-dasharray="20.239652558815084,2.3877644391544366" stroke-dashoffset="20.239653"/></g><g><path d="M756 2c-2.651 0-5.196 1.054-7.071 2.929C747.054 6.804 746 9.349 746 12s1.054 5.196 2.929 7.071C750.804 20.946 753.349 22 756 22s5.196-1.054 7.071-2.929C764.946 17.196 766 14.651 766 12s-1.054-5.196-2.929-7.071C761.196 3.054 758.651 2 756 2z" fill="#000000" fill-opacity=".908291" stroke="#000000"/><path d="M764 6l-11 11-5-5" fill="none" stroke="#ffffff" stroke-dasharray="20.55227079064051,2.0751462073290114" stroke-dashoffset="20.552271"/></g><g><path d="M780 2c-2.651 0-5.196 1.054-7.071 2.929C771.054 6.804 770 9.349 770 12s1.054 5.196 2.929 7.071C774.804 20.946 777.349 22 780 22s5.196-1.054 7.071-2.929C788.946 17.196 790 14.651 790 12s-1.054-5.196-2.929-7.071C785.196 3.054 782.651 2 780 2z" fill="#000000" fill-opacity=".920776" stroke="#000000"/><path d="M788 6l-11 11-5-5" fill="none" stroke="#ffffff" stroke-dasharray="20.83477761328801,1.7926393846815103" stroke-dashoffset="20.834778"/></g><g><path d="M804 2c-2.651 0-5.196 1.054-7.071 2.929C795.054 6.804 794 9.349 794 12s1.054 5.196 2.929 7.071C798.804 20.946 801.349 22 804 22s5.196-1.054 7.071-2.929C812.946 17.196 814 14.651 814 12s-1.054-5.196-2.929-7.071C809.196 3.054 806.651 2 804 2z" fill="#000000" fill-opacity=".932037" stroke="#000000"/><path d="M812 6l-11 11-5-5" fill="none" stroke="#ffffff" stroke-dasharray="21.089584662235147,1.5378323357343768" stroke-dashoffset="21.089585"/></g><g><path d="M828 2c-2.651 0-5.196 1.054-7.071 2.929C819.054 6.804 818 9.349 818 12s1.054 5.196 2.929 7.071C822.804 20.946 825.349 22 828 22s5.196-1.054 7.071-2.929C836.946 17.196 838 14.651 838 12s-1.054-5.196-2.929-7.071C833.196 3.054 830.651 2 828 2z" fill="#000000" fill-opacity=".942168" stroke="#000000"/><path d="M836 6l-11 11-5-5" fill="none" stroke="#ffffff" stroke-dasharray="21.31882801648281,1.3085889814867113" stroke-dashoffset="21.318828"/></g><g><path d="M852 2c-2.651 0-5.196 1.054-7.071 2.929C843.054 6.804 842 9.349 842 12s1.054 5.196 2.929 7.071C846.804 20.946 849.349 22 852 22s5.196-1.054 7.071-2.929C860.946 17.196 862 14.651 862 12s-1.054-5.196-2.929-7.071C857.196 3.054 854.651 2 852 2z" fill="#000000" fill-opacity=".951253" stroke="#000000"/><path d="M860 6l-11 11-5-5" fill="none" stroke="#ffffff" stroke-dasharray="21.524406444968424,1.1030105530010974" stroke-dashoffset="21.524406"/></g><g><path d="M876 2c-2.651 0-5.196 1.054-7.071 2.929C867.054 6.804 866 9.349 866 12s1.054 5.196 2.929 7.071C870.804 20.946 873.349 22 876 22s5.196-1.054 7.071-2.929C884.946 17.196 886 14.651 886 12s-1.054-5.196-2.929-7.071C881.196 3.054 878.651 2 876 2z" fill="#000000" fill-opacity=".959368" stroke="#000000"/><path d="M884 6l-11 11-5-5" fill="none" stroke="#ffffff" stroke-dasharray="21.708013833600106,0.9194031643694153" stroke-dashoffset="21.708014"/></g><g><path d="M900 2c-2.651 0-5.196 1.054-7.071 2.929C891.054 6.804 890 9.349 890 12s1.054 5.196 2.929 7.071C894.804 20.946 897.349 22 900 22s5.196-1.054 7.071-2.929C908.946 17.196 910 14.651 910 12s-1.054-5.196-2.929-7.071C905.196 3.054 902.651 2 900 2z" fill="#000000" fill-opacity=".966578" stroke="#000000"/><path d="M908 6l-11 11-5-5" fill="none" stroke="#ffffff" stroke-dasharray="21.871166650828627,0.7562503471408936" stroke-dashoffset="21.871167"/></g><g><path d="M924 2c-2.651 0-5.196 1.054-7.071 2.929C915.054 6.804 914 9.349 914 12s1.054 5.196 2.929 7.071C918.804 20.946 921.349 22 924 22s5.196-1.054 7.071-2.929C932.946 17.196 934 14.651 934 12s-1.054-5.196-2.929-7.071C929.196 3.054 926.651 2 924 2z" fill="#000000" fill-opacity=".972945" stroke="#000000"/><path d="M932 6l-11 11-5-5" fill="none" stroke="#ffffff" stroke-dasharray="22.01522722595508,0.6121897720144431" stroke-dashoffset="22.015227"/></g><g><path d="M948 2c-2.651 0-5.196 1.054-7.071 2.929C939.054 6.804 938 9.349 938 12s1.054 5.196 2.929 7.071C942.804 20.946 945.349 22 948 22s5.196-1.054 7.071-2.929C956.946 17.196 958 14.651 958 12s-1.054-5.196-2.929-7.071C953.196 3.054 950.651 2 948 2z" fill="#000000" fill-opacity=".978522" stroke="#000000"/><path d="M956 6l-11 11-5-5" fill="none" stroke="#ffffff" stroke-dasharray="22.141423512460772,0.4859934855087516" stroke-dashoffset="22.141424"/></g><g><path d="M972 2c-2.651 0-5.196 1.054-7.071 2.929C963.054 6.804 962 9.349 962 12s1.054 5.196 2.929 7.071C966.804 20.946 969.349 22 972 22s5.196-1.054 7.071-2.929C980.946 17.196 982 14.651 982 12s-1.054-5.196-2.929-7.071C977.196 3.054 974.651 2 972 2z" fill="#000000" fill-opacity=".983359" stroke="#000000"/><path d="M980 6l-11 11-5-5" fill="none" stroke="#ffffff" stroke-dasharray="22.25086590760881,0.37655109036071455" stroke-dashoffset="22.250866"/></g><g><path d="M996 2c-2.651 0-5.196 1.054-7.071 2.929C987.054 6.804 986 9.349 986 12s1.054 5.196 2.929 7.071C990.804 20.946 993.349 22 996 22s5.196-1.054 7.071-2.929c1.875-1.875 2.929-4.42 2.929-7.071s-1.054-5.196-2.929-7.071C1001.196 3.054 998.651 2 996 2z" fill="#000000" fill-opacity=".987499" stroke="#000000"/><path d="M1004 6l-11 11-5-5" fill="none" stroke="#ffffff" stroke-dasharray="22.344561607667714,0.28285539030180984" stroke-dashoffset="22.344562"/></g><g><path d="M1020 2c-2.651 0-5.196 1.054-7.071 2.929C1011.054 6.804 1010 9.349 1010 12s1.054 5.196 2.929 7.071c1.875 1.875 4.42 2.929 7.071 2.929s5.196-1.054 7.071-2.929c1.875-1.875 2.929-4.42 2.929-7.071s-1.054-5.196-2.929-7.071C1025.196 3.054 1022.651 2 1020 2z" fill="#000000" fill-opacity=".990985" stroke="#000000"/><path d="M1028 6l-11 11-5-5" fill="none" stroke="#ffffff" stroke-dasharray="22.42342689815967,0.20399009980985247" stroke-dashoffset="22.423427"/></g><g><path d="M1044 2c-2.651 0-5.196 1.054-7.071 2.929C1035.054 6.804 1034 9.349 1034 12s1.054 5.196 2.929 7.071c1.875 1.875 4.42 2.929 7.071 2.929s5.196-1.054 7.071-2.929c1.875-1.875 2.929-4.42 2.929-7.071s-1.054-5.196-2.929-7.071C1049.196 3.054 1046.651 2 1044 2z" fill="#000000" fill-opacity=".993852" stroke="#000000"/><path d="M1052 6l-11 11-5-5" fill="none" stroke="#ffffff" stroke-dasharray="22.488297710717433,0.13911928725208794" stroke-dashoffset="22.488298"/></g><g><path d="M1068 2c-2.651 0-5.196 1.054-7.071 2.929C1059.054 6.804 1058 9.349 1058 12s1.054 5.196 2.929 7.071c1.875 1.875 4.42 2.929 7.071 2.929s5.196-1.054 7.071-2.929c1.875-1.875 2.929-4.42 2.929-7.071s-1.054-5.196-2.929-7.071C1073.196 3.054 1070.651 2 1068 2z" fill="#000000" fill-opacity=".996134" stroke="#000000"/><path d="M1076 6l-11 11-5-5" fill="none" stroke="#ffffff" stroke-dasharray="22.539938721451787,0.08747827651773625" stroke-dashoffset="22.539939"/></g><g><path d="M1092 2c-2.651 0-5.196 1.054-7.071 2.929C1083.054 6.804 1082 9.349 1082 12s1.054 5.196 2.929 7.071c1.875 1.875 4.42 2.929 7.071 2.929s5.196-1.054 7.071-2.929c1.875-1.875 2.929-4.42 2.929-7.071s-1.054-5.196-2.929-7.071C1097.196 3.054 1094.651 2 1092 2z" fill="#000000" fill-opacity=".997863" stroke="#000000"/><path d="M1100 6l-11 11-5-5" fill="none" stroke="#ffffff" stroke-dasharray="22.579051218766807,0.048365779202714974" stroke-dashoffset="22.579051"/></g><g><path d="M1116 2c-2.651 0-5.196 1.054-7.071 2.929C1107.054 6.804 1106 9.349 1106 12s1.054 5.196 2.929 7.071c1.875 1.875 4.42 2.929 7.071 2.929s5.196-1.054 7.071-2.929c1.875-1.875 2.929-4.42 2.929-7.071s-1.054-5.196-2.929-7.071C1121.196 3.054 1118.651 2 1116 2z" fill="#000000" fill-opacity=".999066" stroke="#000000"/><path d="M1124 6l-11 11-5-5" fill="none" stroke="#ffffff" stroke-dasharray="22.60627992983682,0.02113706813270249" stroke-dashoffset="22.60628"/></g><g><path d="M1140 2c-2.651 0-5.196 1.054-7.071 2.929C1131.054 6.804 1130 9.349 1130 12s1.054 5.196 2.929 7.071c1.875 1.875 4.42 2.929 7.071 2.929s5.196-1.054 7.071-2.929c1.875-1.875 2.929-4.42 2.929-7.071s-1.054-5.196-2.929-7.071C1145.196 3.054 1142.651 2 1140 2z" fill="#000000" fill-opacity=".99977" stroke="#000000"/><path d="M1148 6l-11 11-5-5" fill="none" stroke="#ffffff" stroke-dasharray="22.622218963104057,0.005198034865463566" stroke-dashoffset="22.622219"/></g><g><path d="M1164 2c-2.651 0-5.196 1.054-7.071 2.929C1155.054 6.804 1154 9.349 1154 12s1.054 5.196 2.929 7.071c1.875 1.875 4.42 2.929 7.071 2.929s5.196-1.054 7.071-2.929c1.875-1.875 2.929-4.42 2.929-7.071s-1.054-5.196-2.929-7.071C1169.196 3.054 1166.651 2 1164 2z" fill="#000000" stroke="#000000"/><path d="M1172 6l-11 11-5-5" fill="none" stroke="#ffffff"/></g></svg>