<svg xmlns="http://www.w3.org/2000/svg" viewBox="0 0 600 24" width="600" height="24"><g fill="none"><path d="M12 2C9.349 2 6.804 3.054 4.929 4.929 3.054 6.804 2 9.349 2 12s1.054 5.196 2.929 7.071C6.804 20.946 9.349 22 12 22s5.196-1.054 7.071-2.929C20.946 17.196 22 14.651 22 12s-1.054-5.196-2.929-7.071C17.196 3.054 14.651 2 12 2z" stroke="#000000"/><path d="M20 6L9 17l-5-5" stroke="#ffffff" stroke-width="2" stroke-dasharray="0,22.627416997969522" stroke-dashoffset="22.627417"/></g><path d="M36 2c-2.651 0-5.196 1.054-7.071 2.929C27.054 6.804 26 9.349 26 12s1.054 5.196 2.929 7.071C30.804 20.946 33.349 22 36 22s5.196-1.054 7.071-2.929C44.946 17.196 46 14.651 46 12s-1.054-5.196-2.929-7.071C41.196 3.054 38.651 2 36 2z" fill="#000000" fill-opacity=".003936" stroke="#000000"/><path d="M44 6L33 17l-5-5" fill="none" stroke="#ffffff" stroke-width="2" stroke-dasharray="0.08906780313650729,22.538349194833014" stroke-dashoffset=".089068"/><path d="M60 2c-2.651 0-5.196 1.054-7.071 2.929C51.054 6.804 50 9.349 50 12s1.054 5.196 2.929 7.071C54.804 20.946 57.349 22 60 22s5.196-1.054 7.071-2.929C68.946 17.196 70 14.651 70 12s-1.054-5.196-2.929-7.071C65.196 3.054 62.651 2 60 2z" fill="#000000" fill-opacity=".017269" stroke="#000000"/><path d="M68 6L57 17l-5-5" fill="none" stroke="#ffffff" stroke-width="2" stroke-dasharray="0.39075075366497136,22.23666624430455" stroke-dashoffset=".390751"/><path d="M84 2c-2.651 0-5.196 1.054-7.071 2.929C75.054 6.804 74 9.349 74 12s1.054 5.196 2.929 7.071C78.804 20.946 81.349 22 84 22s5.196-1.054 7.071-2.929C92.946 17.196 94 14.651 94 12s-1.054-5.196-2.929-7.071C89.196 3.054 86.651 2 84 2z" fill="#000000" fill-opacity=".042969" stroke="#000000"/><path d="M92 6L81 17l-5-5" fill="none" stroke="#ffffff" stroke-width="2" stroke-dasharray="0.9722718241315029,21.65514517383802" stroke-dashoffset=".972272"/><path d="M108 2c-2.651 0-5.196 1.054-7.071 2.929C99.054 6.804 98 9.349 98 12s1.054 5.196 2.929 7.071C102.804 20.946 105.349 22 108 22s5.196-1.054 7.071-2.929C116.946 17.196 118 14.651 118 12s-1.054-5.196-2.929-7.071C113.196 3.054 110.651 2 108 2z" fill="#000000" fill-opacity=".085105" stroke="#000000"/><path d="M116 6l-11 11-5-5" fill="none" stroke="#ffffff" stroke-width="2" stroke-dasharray="1.9257172211018367,20.701699776867684" stroke-dashoffset="1.925717"/><path d="M132 2c-2.651 0-5.196 1.054-7.071 2.929C123.054 6.804 122 9.349 122 12s1.054 5.196 2.929 7.071C126.804 20.946 129.349 22 132 22s5.196-1.054 7.071-2.929C140.946 17.196 142 14.651 142 12s-1.054-5.196-2.929-7.071C137.196 3.054 134.651 2 132 2z" fill="#000000" fill-opacity=".148564" stroke="#000000"/><path d="M140 6l-11 11-5-5" fill="none" stroke="#ffffff" stroke-width="2" stroke-dasharray="3.3616189370077,19.26579806096182" stroke-dashoffset="3.361619"/><path d="M156 2c-2.651 0-5.196 1.054-7.071 2.929C147.054 6.804 146 9.349 146 12s1.054 5.196 2.929 7.071C150.804 20.946 153.349 22 156 22s5.196-1.054 7.071-2.929C164.946 17.196 166 14.651 166 12s-1.054-5.196-2.929-7.071C161.196 3.054 158.651 2 156 2z" fill="#000000" fill-opacity=".236587" stroke="#000000"/><path d="M164 6l-11 11-5-5" fill="none" stroke="#ffffff" stroke-width="2" stroke-dasharray="5.353360861753419,17.274056136216103" stroke-dashoffset="5.353361"/><path d="M180 2c-2.651 0-5.196 1.054-7.071 2.929C171.054 6.804 170 9.349 170 12s1.054 5.196 2.929 7.071C174.804 20.946 177.349 22 180 22s5.196-1.054 7.071-2.929C188.946 17.196 190 14.651 190 12s-1.054-5.196-2.929-7.071C185.196 3.054 182.651 2 180 2z" fill="#000000" fill-opacity=".344554" stroke="#000000"/><path d="M188 6l-11 11-5-5" fill="none" stroke="#ffffff" stroke-width="2" stroke-dasharray="7.7963594594283,14.831057538541224" stroke-dashoffset="7.796359"/><path d="M204 2c-2.651 0-5.196 1.054-7.071 2.929C195.054 6.804 194 9.349 194 12s1.054 5.196 2.929 7.071C198.804 20.946 201.349 22 204 22s5.196-1.054 7.071-2.929C212.946 17.196 214 14.651 214 12s-1.054-5.196-2.929-7.071C209.196 3.054 206.651 2 204 2z" fill="#000000" fill-opacity=".457252" stroke="#000000"/><path d="M212 6l-11 11-5-5" fill="none" stroke="#ffffff" stroke-width="2" stroke-dasharray="10.346425789883414,12.280991208086109" stroke-dashoffset="10.346426"/><path d="M228 2c-2.651 0-5.196 1.054-7.071 2.929C219.054 6.804 218 9.349 218 12s1.054 5.196 2.929 7.071C222.804 20.946 225.349 22 228 22s5.196-1.054 7.071-2.929C236.946 17.196 238 14.651 238 12s-1.054-5.196-2.929-7.071C233.196 3.054 230.651 2 228 2z" fill="#000000" fill-opacity=".55973" stroke="#000000"/><path d="M236 6l-11 11-5-5" fill="none" stroke="#ffffff" stroke-width="2" stroke-dasharray="12.66524734240184,9.962169655567683" stroke-dashoffset="12.665247"/><path d="M252 2c-2.651 0-5.196 1.054-7.071 2.929C243.054 6.804 242 9.349 242 12s1.054 5.196 2.929 7.071C246.804 20.946 249.349 22 252 22s5.196-1.054 7.071-2.929C260.946 17.196 262 14.651 262 12s-1.054-5.196-2.929-7.071C257.196 3.054 254.651 2 252 2z" fill="#000000" fill-opacity=".646246" stroke="#000000"/><path d="M260 6l-11 11-5-5" fill="none" stroke="#ffffff" stroke-width="2" stroke-dasharray="14.62288041507916,8.004536582890362" stroke-dashoffset="14.62288"/><path d="M276 2c-2.651 0-5.196 1.054-7.071 2.929C267.054 6.804 266 9.349 266 12s1.054 5.196 2.929 7.071C270.804 20.946 273.349 22 276 22s5.196-1.054 7.071-2.929C284.946 17.196 286 14.651 286 12s-1.054-5.196-2.929-7.071C281.196 3.054 278.651 2 276 2z" fill="#000000" fill-opacity=".717378" stroke="#000000"/><path d="M284 6l-11 11-5-5" fill="none" stroke="#ffffff" stroke-width="2" stroke-dasharray="16.232405439259605,6.395011558709919" stroke-dashoffset="16.232405"/><path d="M300 2c-2.651 0-5.196 1.054-7.071 2.929C291.054 6.804 290 9.349 290 12s1.054 5.196 2.929 7.071C294.804 20.946 297.349 22 300 22s5.196-1.054 7.071-2.929C308.946 17.196 310 14.651 310 12s-1.054-5.196-2.929-7.071C305.196 3.054 302.651 2 300 2z" fill="#000000" fill-opacity=".775561" stroke="#000000"/><path d="M308 6l-11 11-5-5" fill="none" stroke="#ffffff" stroke-width="2" stroke-dasharray="17.548949194118183,5.07846780385134" stroke-dashoffset="17.548949"/><g><path d="M324 2c-2.651 0-5.196 1.054-7.071 2.929C315.054 6.804 314 9.349 314 12s1.054 5.196 2.929 7.071C318.804 20.946 321.349 22 324 22s5.196-1.054 7.071-2.929C332.946 17.196 334 14.651 334 12s-1.054-5.196-2.929-7.071C329.196 3.054 326.651 2 324 2z" fill="#000000" fill-opacity=".823225" stroke="#000000"/><path d="M332 6l-11 11-5-5" fill="none" stroke="#ffffff" stroke-width="2" stroke-dasharray="18.627460018904443,3.99995697906508" stroke-dashoffset="18.62746"/></g><g><path d="M348 2c-2.651 0-5.196 1.054-7.071 2.929C339.054 6.804 338 9.349 338 12s1.054 5.196 2.929 7.071C342.804 20.946 345.349 22 348 22s5.196-1.054 7.071-2.929C356.946 17.196 358 14.651 358 12s-1.054-5.196-2.929-7.071C353.196 3.054 350.651 2 348 2z" fill="#000000" fill-opacity=".862351" stroke="#000000"/><path d="M356 6l-11 11-5-5" fill="none" stroke="#ffffff" stroke-width="2" stroke-dasharray="19.512780374128777,3.1146366238407435" stroke-dashoffset="19.51278"/></g><g><path d="M372 2c-2.651 0-5.196 1.054-7.071 2.929C363.054 6.804 362 9.349 362 12s1.054 5.196 2.929 7.071C366.804 20.946 369.349 22 372 22s5.196-1.054 7.071-2.929C380.946 17.196 382 14.651 382 12s-1.054-5.196-2.929-7.071C377.196 3.054 374.651 2 372 2z" fill="#000000" fill-opacity=".894475" stroke="#000000"/><path d="M380 6l-11 11-5-5" fill="none" stroke="#ffffff" stroke-width="2" stroke-dasharray="20.239652558815084,2.3877644391544366" stroke-dashoffset="20.239653"/></g><g><path d="M396 2c-2.651 0-5.196 1.054-7.071 2.929C387.054 6.804 386 9.349 386 12s1.054 5.196 2.929 7.071C390.804 20.946 393.349 22 396 22s5.196-1.054 7.071-2.929C404.946 17.196 406 14.651 406 12s-1.054-5.196-2.929-7.071C401.196 3.054 398.651 2 396 2z" fill="#000000" fill-opacity=".920776" stroke="#000000"/><path d="M404 6l-11 11-5-5" fill="none" stroke="#ffffff" stroke-width="2" stroke-dasharray="20.83477761328801,1.7926393846815103" stroke-dashoffset="20.834778"/></g><g><path d="M420 2c-2.651 0-5.196 1.054-7.071 2.929C411.054 6.804 410 9.349 410 12s1.054 5.196 2.929 7.071C414.804 20.946 417.349 22 420 22s5.196-1.054 7.071-2.929C428.946 17.196 430 14.651 430 12s-1.054-5.196-2.929-7.071C425.196 3.054 422.651 2 420 2z" fill="#000000" fill-opacity=".942168" stroke="#000000"/><path d="M428 6l-11 11-5-5" fill="none" stroke="#ffffff" stroke-width="2" stroke-dasharray="21.31882801648281,1.3085889814867113" stroke-dashoffset="21.318828"/></g><g><path d="M444 2c-2.651 0-5.196 1.054-7.071 2.929C435.054 6.804 434 9.349 434 12s1.054 5.196 2.929 7.071C438.804 20.946 441.349 22 444 22s5.196-1.054 7.071-2.929C452.946 17.196 454 14.651 454 12s-1.054-5.196-2.929-7.071C449.196 3.054 446.651 2 444 2z" fill="#000000" fill-opacity=".959368" stroke="#000000"/><path d="M452 6l-11 11-5-5" fill="none" stroke="#ffffff" stroke-width="2" stroke-dasharray="21.708013833600106,0.9194031643694153" stroke-dashoffset="21.708014"/></g><g><path d="M468 2c-2.651 0-5.196 1.054-7.071 2.929C459.054 6.804 458 9.349 458 12s1.054 5.196 2.929 7.071C462.804 20.946 465.349 22 468 22s5.196-1.054 7.071-2.929C476.946 17.196 478 14.651 478 12s-1.054-5.196-2.929-7.071C473.196 3.054 470.651 2 468 2z" fill="#000000" fill-opacity=".972945" stroke="#000000"/><path d="M476 6l-11 11-5-5" fill="none" stroke="#ffffff" stroke-width="2" stroke-dasharray="22.01522722595508,0.6121897720144431" stroke-dashoffset="22.015227"/></g><g><path d="M492 2c-2.651 0-5.196 1.054-7.071 2.929C483.054 6.804 482 9.349 482 12s1.054 5.196 2.929 7.071C486.804 20.946 489.349 22 492 22s5.196-1.054 7.071-2.929C500.946 17.196 502 14.651 502 12s-1.054-5.196-2.929-7.071C497.196 3.054 494.651 2 492 2z" fill="#000000" fill-opacity=".983359" stroke="#000000"/><path d="M500 6l-11 11-5-5" fill="none" stroke="#ffffff" stroke-width="2" stroke-dasharray="22.25086590760881,0.37655109036071455" stroke-dashoffset="22.250866"/></g><g><path d="M516 2c-2.651 0-5.196 1.054-7.071 2.929C507.054 6.804 506 9.349 506 12s1.054 5.196 2.929 7.071C510.804 20.946 513.349 22 516 22s5.196-1.054 7.071-2.929C524.946 17.196 526 14.651 526 12s-1.054-5.196-2.929-7.071C521.196 3.054 518.651 2 516 2z" fill="#000000" fill-opacity=".990985" stroke="#000000"/><path d="M524 6l-11 11-5-5" fill="none" stroke="#ffffff" stroke-width="2" stroke-dasharray="22.42342689815967,0.20399009980985247" stroke-dashoffset="22.423427"/></g><g><path d="M540 2c-2.651 0-5.196 1.054-7.071 2.929C531.054 6.804 530 9.349 530 12s1.054 5.196 2.929 7.071C534.804 20.946 537.349 22 540 22s5.196-1.054 7.071-2.929C548.946 17.196 550 14.651 550 12s-1.054-5.196-2.929-7.071C545.196 3.054 542.651 2 540 2z" fill="#000000" fill-opacity=".996134" stroke="#000000"/><path d="M548 6l-11 11-5-5" fill="none" stroke="#ffffff" stroke-width="2" stroke-dasharray="22.539938721451787,0.08747827651773625" stroke-dashoffset="22.539939"/></g><g><path d="M564 2c-2.651 0-5.196 1.054-7.071 2.929C555.054 6.804 554 9.349 554 12s1.054 5.196 2.929 7.071C558.804 20.946 561.349 22 564 22s5.196-1.054 7.071-2.929C572.946 17.196 574 14.651 574 12s-1.054-5.196-2.929-7.071C569.196 3.054 566.651 2 564 2z" fill="#000000" fill-opacity=".999066" stroke="#000000"/><path d="M572 6l-11 11-5-5" fill="none" stroke="#ffffff" stroke-width="2" stroke-dasharray="22.60627992983682,0.02113706813270249" stroke-dashoffset="22.60628"/></g><g><path d="M588 2c-2.651 0-5.196 1.054-7.071 2.929C579.054 6.804 578 9.349 578 12s1.054 5.196 2.929 7.071C582.804 20.946 585.349 22 588 22s5.196-1.054 7.071-2.929C596.946 17.196 598 14.651 598 12s-1.054-5.196-2.929-7.071C593.196 3.054 590.651 2 588 2z" fill="#000000" stroke="#000000"/><path d="M596 6l-11 11-5-5" fill="none" stroke="#ffffff" stroke-width="2"/></g></svg>