<svg xmlns="http://www.w3.org/2000/svg" viewBox="0 0 240 24" width="240" height="24"><g fill="none"><path d="M12 2C9.349 2 6.804 3.054 4.929 4.929 3.054 6.804 2 9.349 2 12s1.054 5.196 2.929 7.071C6.804 20.946 9.349 22 12 22s5.196-1.054 7.071-2.929C20.946 17.196 22 14.651 22 12s-1.054-5.196-2.929-7.071C17.196 3.054 14.651 2 12 2z" stroke="#000000"/><path d="M20 6L9 17l-5-5" stroke="#ffffff" stroke-dasharray="0,22.627416997969522" stroke-dashoffset="22.627417"/></g><path d="M36 2c-2.651 0-5.196 1.054-7.071 2.929C27.054 6.804 26 9.349 26 12s1.054 5.196 2.929 7.071C30.804 20.946 33.349 22 36 22s5.196-1.054 7.071-2.929C44.946 17.196 46 14.651 46 12s-1.054-5.196-2.929-7.071C41.196 3.054 38.651 2 36 2z" fill="#000000" fill-opacity=".032801" stroke="#000000"/><path d="M44 6L33 17l-5-5" fill="none" stroke="#ffffff" stroke-dasharray="0.39075075366497136,22.23666624430455" stroke-dashoffset=".390751"/><path d="M60 2c-2.651 0-5.196 1.054-7.071 2.929C51.054 6.804 50 9.349 50 12s1.054 5.196 2.929 7.071C54.804 20.946 57.349 22 60 22s5.196-1.054 7.071-2.929C68.946 17.196 70 14.651 70 12s-1.054-5.196-2.929-7.071C65.196 3.054 62.651 2 60 2z" fill="#000000" fill-opacity=".175168" stroke="#000000"/><path d="M68 6L57 17l-5-5" fill="none" stroke="#ffffff" stroke-dasharray="1.9257172211018367,20.701699776867684" stroke-dashoffset="1.925717"/><path d="M84 2c-2.651 0-5.196 1.054-7.071 2.929C75.054 6.804 74 9.349 74 12s1.054 5.196 2.929 7.071C78.804 20.946 81.349 22 84 22s5.196-1.054 7.071-2.929C92.946 17.196 94 14.651 94 12s-1.054-5.196-2.929-7.071C89.196 3.054 86.651 2 84 2z" fill="#000000" fill-opacity=".457252" stroke="#000000"/><path d="M92 6L81 17l-5-5" fill="none" stroke="#ffffff" stroke-dasharray="5.353360861753419,17.274056136216103" stroke-dashoffset="5.353361"/><path d="M108 2c-2.651 0-5.196 1.054-7.071 2.929C99.054 6.804 98 9.349 98 12s1.054 5.196 2.929 7.071C102.804 20.946 105.349 22 108 22s5.196-1.054 7.071-2.929C116.946 17.196 118 14.651 118 12s-1.054-5.196-2.929-7.071C113.196 3.054 110.651 2 108 2z" fill="#000000" fill-opacity=".695235" stroke="#000000"/><path d="M116 6l-11 11-5-5" fill="none" stroke="#ffffff" stroke-dasharray="10.346425789883414,12.280991208086109" stroke-dashoffset="10.346426"/><path d="M132 2c-2.651 0-5.196 1.054-7.071 2.929C123.054 6.804 122 9.349 122 12s1.054 5.196 2.929 7.071C126.804 20.946 129.349 22 132 22s5.196-1.054 7.071-2.929C140.946 17.196 142 14.651 142 12s-1.054-5.196-2.929-7.071C137.196 3.054 134.651 2 132 2z" fill="#000000" fill-opacity=".837132" stroke="#000000"/><path d="M140 6l-11 11-5-5" fill="none" stroke="#ffffff" stroke-dasharray="14.62288041507916,8.004536582890362" stroke-dashoffset="14.62288"/><g><path d="M156 2c-2.651 0-5.196 1.054-7.071 2.929C147.054 6.804 146 9.349 146 12s1.054 5.196 2.929 7.071C150.804 20.946 153.349 22 156 22s5.196-1.054 7.071-2.929C164.946 17.196 166 14.651 166 12s-1.054-5.196-2.929-7.071C161.196 3.054 158.651 2 156 2z" fill="#000000" fill-opacity=".920776" stroke="#000000"/><path d="M164 6l-11 11-5-5" fill="none" stroke="#ffffff" stroke-dasharray="17.548949194118183,5.07846780385134" stroke-dashoffset="17.548949"/></g><g><path d="M180 2c-2.651 0-5.196 1.054-7.071 2.929C171.054 6.804 170 9.349 170 12s1.054 5.196 2.929 7.071C174.804 20.946 177.349 22 180 22s5.196-1.054 7.071-2.929C188.946 17.196 190 14.651 190 12s-1.054-5.196-2.929-7.071C185.196 3.054 182.651 2 180 2z" fill="#000000" fill-opacity=".968791" stroke="#000000"/><path d="M188 6l-11 11-5-5" fill="none" stroke="#ffffff" stroke-dasharray="19.512780374128777,3.1146366238407435" stroke-dashoffset="19.51278"/></g><g><path d="M204 2c-2.651 0-5.196 1.054-7.071 2.929C195.054 6.804 194 9.349 194 12s1.054 5.196 2.929 7.071C198.804 20.946 201.349 22 204 22s5.196-1.054 7.071-2.929C212.946 17.196 214 14.651 214 12s-1.054-5.196-2.929-7.071C209.196 3.054 206.651 2 204 2z" fill="#000000" fill-opacity=".992963" stroke="#000000"/><path d="M212 6l-11 11-5-5" fill="none" stroke="#ffffff" stroke-dasharray="20.83477761328801,1.7926393846815103" stroke-dashoffset="20.834778"/></g><g><path d="M228 2c-2.651 0-5.196 1.054-7.071 2.929C219.054 6.804 218 9.349 218 12s1.054 5.196 2.929 7.071C222.804 20.946 225.349 22 228 22s5.196-1.054 7.071-2.929C236.946 17.196 238 14.651 238 12s-1.054-5.196-2.929-7.071C233.196 3.054 230.651 2 228 2z" fill="#000000" stroke="#000000"/><path d="M236 6l-11 11-5-5" fill="none" stroke="#ffffff" stroke-dasharray="21.708013833600106,0.9194031643694153" stroke-dashoffset="21.708014"/></g></svg>